# Blender v2.78 (sub 0) OBJ File: ''
# www.blender.org
mtllib arrow.mtl
o Cube
v 1.000000 -0.256284 0.418520
v 1.000000 0.256284 0.418520
v 1.000000 0.256284 -0.418520
v 1.000000 -0.256284 -0.418520
v 3.000000 0.256284 -0.418520
v 3.000000 -0.256284 -0.418520
v 3.000000 0.256284 0.418520
v 4.877911 0.000000 0.000000
v 3.000000 -0.256284 0.418520
v 3.000000 0.256284 -1.118520
v 3.000000 -0.256284 -1.118520
v 3.000000 0.256284 1.118520
v 3.000000 -0.256284 1.118520
vn -1.0000 0.0000 0.0000
vn 0.0000 0.0000 -1.0000
vn 0.1352 0.9908 0.0000
vn 0.0000 -0.0000 1.0000
vn 0.0000 -1.0000 -0.0000
vn 0.0000 1.0000 0.0000
vn 0.1352 -0.9908 -0.0000
vn 0.5117 0.0000 -0.8591
vn 0.5117 0.0000 0.8591
usemtl None
s 1
f 1//1 2//1 3//1 4//1
f 4//2 3//2 5//2 6//2
f 5//3 7//3 8//3
f 9//4 7//4 2//4 1//4
f 4//5 6//5 9//5 1//5
f 5//6 3//6 2//6 7//6
f 9//7 6//7 8//7
f 6//1 5//1 10//1 11//1
f 5//3 8//3 10//3
f 12//3 8//3 7//3
f 7//1 9//1 13//1 12//1
f 9//7 8//7 13//7
f 6//7 11//7 8//7
f 10//8 8//8 11//8
f 13//9 8//9 12//9
